HIERARCHY
ROOT Hips
{
	OFFSET 0.000000 0.000000 0.000000
	CHANNELS 6 Xposition Yposition Zposition Zrotation Yrotation Xrotation 
	JOINT LHipJoint
	{
		OFFSET 0.000000 0.000000 0.000000
		CHANNELS 3 Zrotation Yrotation Xrotation
		JOINT LeftUpLeg
		{
			OFFSET 1.363060 -1.794630 0.839290
			CHANNELS 3 Zrotation Yrotation Xrotation
			JOINT LeftLeg
			{
				OFFSET 2.448110 -6.726130 0.000000
				CHANNELS 3 Zrotation Yrotation Xrotation
				JOINT LeftFoot
				{
					OFFSET 2.562200 -7.039590 0.000000
					CHANNELS 3 Zrotation Yrotation Xrotation
					JOINT LeftToeBase
					{
						OFFSET 0.157640 -0.433110 2.322550
						CHANNELS 3 Zrotation Yrotation Xrotation
						End Site
						{
							OFFSET 0.000000 0.000000 0.000000
						}
					}
				}
			}
		}
	}
	JOINT RHipJoint
	{
		OFFSET 0.000000 0.000000 0.000000
		CHANNELS 3 Zrotation Yrotation Xrotation
		JOINT RightUpLeg
		{
			OFFSET -1.305520 -1.794630 0.839290
			CHANNELS 3 Zrotation Yrotation Xrotation
			JOINT RightLeg
			{
				OFFSET -2.542530 -6.985550 0.000000
				CHANNELS 3 Zrotation Yrotation Xrotation
				JOINT RightFoot
				{
					OFFSET -2.568260 -7.056230 0.000000
					CHANNELS 3 Zrotation Yrotation Xrotation
					JOINT RightToeBase
					{
						OFFSET -0.164730 -0.452590 2.363150
						CHANNELS 3 Zrotation Yrotation Xrotation
						End Site
						{
							OFFSET 0.000000 0.000000 0.000000
						}
					}
				}
			}
		}
	}
	JOINT LowerBack
	{
		OFFSET 0.000000 0.000000 0.000000
		CHANNELS 3 Zrotation Yrotation Xrotation
		JOINT Spine
		{
			OFFSET 0.028270 2.035590 -0.193380
			CHANNELS 3 Zrotation Yrotation Xrotation
			JOINT Spine1
			{
				OFFSET 0.056720 2.048850 -0.042750
				CHANNELS 3 Zrotation Yrotation Xrotation
				JOINT Neck
				{
					OFFSET 0.000000 0.000000 0.000000
					CHANNELS 3 Zrotation Yrotation Xrotation
					JOINT Neck1
					{
						OFFSET -0.054170 1.746240 0.172020
						CHANNELS 3 Zrotation Yrotation Xrotation
						JOINT Head
						{
							OFFSET 0.104070 1.761360 -0.123970
							CHANNELS 3 Zrotation Yrotation Xrotation
							End Site
							{
								OFFSET 0.000000 0.000000 0.000000
							}
						}
					}
				}
				JOINT LeftShoulder
				{
					OFFSET 0.000000 0.000000 0.000000
					CHANNELS 3 Zrotation Yrotation Xrotation
					JOINT LeftArm
					{
						OFFSET 3.362410 1.200890 -0.311210
						CHANNELS 3 Zrotation Yrotation Xrotation
						JOINT LeftForeArm
						{
							OFFSET 4.983000 -0.000000 -0.000000
							CHANNELS 3 Zrotation Yrotation Xrotation
							JOINT LeftHand
							{
								OFFSET 3.483560 -0.000000 -0.000000
								CHANNELS 3 Zrotation Yrotation Xrotation
								JOINT LeftFingerBase
								{
									OFFSET 0.000000 0.000000 0.000000
									CHANNELS 3 Zrotation Yrotation Xrotation
									JOINT LeftHandIndex1
									{
										OFFSET 0.715260 -0.000000 -0.000000
										CHANNELS 3 Zrotation Yrotation Xrotation
										End Site
										{
											OFFSET 0.000000 0.000000 0.000000
										}
									}
								}
								JOINT LThumb
								{
									OFFSET 0.000000 0.000000 0.000000
									CHANNELS 3 Zrotation Yrotation Xrotation
									End Site
									{
										OFFSET 0.000000 0.000000 0.000000
									}
								}
							}
						}
					}
				}
				JOINT RightShoulder
				{
					OFFSET 0.000000 0.000000 0.000000
					CHANNELS 3 Zrotation Yrotation Xrotation
					JOINT RightArm
					{
						OFFSET -3.136600 1.374050 -0.404650
						CHANNELS 3 Zrotation Yrotation Xrotation
						JOINT RightForeArm
						{
							OFFSET -5.241900 -0.000000 -0.000000
							CHANNELS 3 Zrotation Yrotation Xrotation
							JOINT RightHand
							{
								OFFSET -3.444170 -0.000000 -0.000000
								CHANNELS 3 Zrotation Yrotation Xrotation
								JOINT RightFingerBase
								{
									OFFSET 0.000000 0.000000 0.000000
									CHANNELS 3 Zrotation Yrotation Xrotation
									JOINT RightHandIndex1
									{
										OFFSET -0.622530 -0.000000 -0.000000
										CHANNELS 3 Zrotation Yrotation Xrotation
										End Site
										{
											OFFSET 0.000000 0.000000 0.000000
										}
									}
								}
								JOINT RThumb
								{
									OFFSET 0.000000 0.000000 0.000000
									CHANNELS 3 Zrotation Yrotation Xrotation
									End Site
									{
										OFFSET 0.000000 0.000000 0.000000
									}
								}
							}
						}
					}
				}
			}
		}
	}
}
MOTION
Frames: 5
Frame Time: 0.008333
11.340650 18.410158 -5.092778 -177.778103 -10.152359 -178.854344 1.664347 4.565600 3.663919 -14.885321 -4.988943 2.238738 2.907462 11.943446 40.195101 1.339976 2.016030 31.761902 0.162200 -2.594400 -7.151600 -3.740034 -3.529717 -0.348259 27.965707 24.727501 -2.350441 4.172236 -4.377099 12.395987 9.757371 -32.548542 -10.625057 -0.847700 -5.872400 16.414700 0.931500 -0.433198 3.524865 2.545057 -0.534220 -1.864017 -3.178784 -0.656206 -11.603598 -11.607924 -6.750712 -17.080285 16.650302 -10.203324 21.378629 3.668200 -4.021300 8.468400 -1.932421 -10.069428 1.877734 -89.318698 16.193670 26.262792 24.719492 -24.461877 -6.794201 2.009230 0.529007 19.079916 -0.608012 -31.667781 1.250300 -7.125000 0.000000 0.000000 -19.026000 -1.322200 20.621400 0.560130 10.742269 3.092257 85.572523 -13.354659 30.931626 -21.855405 24.966541 -6.366603 1.071484 0.445253 12.502485 6.241471 -54.428402 -4.357500 7.125000 0.000000 0.000000 81.407800 -70.063200 -59.883900 
11.363728 18.421226 -5.240667 -177.718337 -10.276447 -179.063343 1.735773 4.490969 3.506578 -14.700849 -4.984256 1.310424 3.502549 12.519636 42.095452 1.359143 2.457143 32.676935 0.086100 -1.892600 -5.208900 -3.765988 -3.583844 -0.236477 28.443929 24.319892 -1.516339 4.224167 -4.127530 11.954571 9.754810 -32.558143 -10.450152 -0.948200 -6.201400 17.370000 0.993197 -0.439726 3.585838 2.521955 -0.535659 -1.540561 -3.205127 -0.636017 -11.572477 -11.613034 -6.929807 -17.285241 16.513116 -10.411789 21.539368 3.609300 -4.119300 8.571800 -1.910985 -10.065054 1.868449 -88.950377 15.916037 26.188712 24.800770 -24.546345 -6.814083 1.950690 0.601050 17.871621 0.608067 -31.790845 0.564100 -7.125000 0.000000 0.000000 -18.347200 -1.557400 19.876000 0.545982 10.771743 3.085257 85.356516 -13.151782 31.399956 -22.111095 25.264053 -6.476615 1.064162 0.446223 12.430390 6.334156 -54.318765 -4.433300 7.125000 0.000000 0.000000 81.155100 -70.007600 -59.563100 
11.388102 18.424994 -5.381728 -177.566219 -10.382032 -179.227463 1.822781 4.412339 3.339213 -14.418982 -4.923091 0.265303 4.131703 13.090922 44.015316 1.358407 3.026145 33.475345 0.019800 -0.908100 -2.495900 -3.804149 -3.640055 -0.146316 29.013461 23.874022 -0.744814 4.248148 -3.890297 11.429056 9.925354 -33.090212 -9.083525 -0.608100 -4.991200 13.883600 1.079003 -0.424895 3.593939 2.588321 -0.509813 -1.302221 -3.240576 -0.607482 -11.512229 -11.535075 -6.950740 -17.163531 16.389202 -10.420791 21.353195 3.551200 -4.139200 8.484300 -1.884950 -10.066980 1.866576 -88.638197 15.826085 26.085096 25.051771 -24.814883 -6.918060 1.882255 0.664598 16.452386 1.657944 -31.811697 -0.037300 -7.125000 0.000000 0.000000 -17.754700 -1.676500 19.202100 0.527353 10.785244 3.068085 85.124801 -12.881490 31.833637 -22.239028 25.406668 -6.520431 1.070107 0.440239 12.353081 5.667146 -53.965437 -3.860100 7.125000 0.000000 0.000000 79.844100 -70.158700 -58.457000 
11.413300 18.427467 -5.517490 -177.134282 -10.438902 -179.336477 1.940202 4.319004 3.153915 -13.869476 -4.873458 -0.968178 4.755796 13.644019 45.964677 1.345584 3.330526 33.790822 0.008400 -0.592400 -1.627700 -3.869978 -3.674211 -0.094598 29.865678 23.283302 -0.141312 4.249337 -3.683534 10.880534 10.039833 -33.663025 -6.697197 -0.162000 -2.593400 7.148600 1.475522 -0.358276 3.636522 2.716094 -0.390259 -1.284874 -3.452554 -0.569453 -11.495794 -11.723711 -6.979120 -16.898583 16.576559 -10.510121 21.270064 3.631100 -4.193100 8.436700 -1.843637 -10.062124 1.888061 -88.284547 16.042792 26.061741 25.435692 -25.229611 -7.100133 1.803227 0.733307 14.975583 2.871083 -31.992506 -0.737400 -7.125000 0.000000 0.000000 -17.069600 -1.976600 18.476900 0.507297 10.778057 3.054700 84.979809 -12.735259 32.286460 -22.353856 25.524641 -6.551052 1.085172 0.427678 12.014787 3.767417 -53.475251 -2.272800 7.125000 0.000000 0.000000 77.448200 -70.691100 -56.787500 
11.437438 18.431235 -5.654782 -176.705660 -10.505763 -179.472789 2.068937 4.209635 2.963788 -13.358959 -4.878439 -2.172876 5.332546 14.161393 47.964714 1.308906 3.019395 33.274068 0.056100 -1.528500 -4.204300 -3.936244 -3.691825 -0.027887 30.725525 22.844377 0.613537 4.319833 -3.401074 10.330353 9.978198 -33.613747 -6.601217 -0.168200 -2.641700 7.282900 1.942860 -0.278307 3.768782 2.801147 -0.243086 -1.330468 -3.712647 -0.527746 -11.551852 -12.031439 -7.093959 -16.947134 16.848749 -10.716879 21.533742 3.754700 -4.280100 8.573600 -1.808047 -10.045942 1.910960 -87.946963 16.216754 25.990232 25.769049 -25.581673 -7.247961 1.730540 0.782095 13.673513 3.886909 -31.901218 -1.321800 -7.125000 0.000000 0.000000 -16.488900 -1.995200 17.796500 0.490871 10.784016 3.055980 84.868111 -12.613906 32.513747 -22.490811 25.675593 -6.601758 1.086334 0.423687 11.895088 3.174718 -53.240821 -1.783100 7.125000 0.000000 0.000000 76.456200 -70.834100 -56.011800 
